IKResults
version=1
nRows=10
nColumns=63
inDegrees=yes

Units are S.I. units (second, meters, Newtons, ...)
If the header above contains a line with 'inDegrees', this indicates whether rotational values are in degrees (yes) or radians (no).

endheader
time	pelvis_tilt	pelvis_list	pelvis_rotation	pelvis_tx	pelvis_ty	pelvis_tz	hip_flexion_r	hip_adduction_r	hip_rotation_r	knee_angle_r	knee_angle_r_beta	ankle_angle_r	subtalar_angle_r	mtp_angle_r	hip_flexion_l	hip_adduction_l	hip_rotation_l	knee_angle_l	knee_angle_l_beta	ankle_angle_l	subtalar_angle_l	mtp_angle_l	L5_S1_Flex_Ext	L5_S1_Lat_Bending	L5_S1_axial_rotation	L4_L5_Flex_Ext	L4_L5_Lat_Bending	L4_L5_axial_rotation	L3_L4_Flex_Ext	L3_L4_Lat_Bending	L3_L4_axial_rotation	L2_L3_Flex_Ext	L2_L3_Lat_Bending	L2_L3_axial_rotation	L1_L2_Flex_Ext	L1_L2_Lat_Bending	L1_L2_axial_rotation	L1_T12_Flex_Ext	L1_T12_Lat_Bending	L1_T12_axial_rotation	Abs_r3	Abs_r2	Abs_r1	Abs_t1	Abs_t2	neck_flexion	neck_bending	neck_rotation	arm_flex_r	arm_add_r	arm_rot_r	elbow_flex_r	pro_sup_r	wrist_flex_r	wrist_dev_r	arm_flex_l	arm_add_l	arm_rot_l	elbow_flex_l	pro_sup_l	wrist_flex_l	wrist_dev_l
      2.03333333	     -4.71571919	     24.61361740	    -52.04545498	     -0.58675335	      0.90522242	     -0.85492312	     21.97847373	    -20.20911035	      2.02433921	      0.20441813	      0.00356777	     15.53586220	    -15.19436120	      0.00000000	     36.50080657	      9.48745053	      5.73202169	     13.11096809	      0.22882956	      3.01460139	     -8.64842559	      0.00000000	     -8.48955339	      0.63600206	     -2.88114134	    -15.76594960	      0.84588274	     -3.06121268	    -13.94748727	      1.54637541	     -3.06121268	     -9.70271057	      1.54637541	     -2.52099868	     -7.88339928	      1.29693541	     -2.34092734	     -4.85093081	      0.98516719	     -2.16085601	    -60.64003092	      7.19458253	    -16.02404381	      0.00000000	      0.00000000	     15.41277115	      9.76180555	    -30.10318908	     -6.81204804	    -13.04001484	      7.43160231	     74.82473467	     89.99559364	      0.00000000	      0.00000000	     48.13679606	     -8.41516082	      9.24242060	     27.45765191	     89.99559364	      0.00000000	      0.00000000
      2.06666667	     -5.54275509	     26.08546722	    -51.61818292	     -0.58873335	      0.90079866	     -0.85783144	     23.81831122	    -20.66304602	      2.43501565	      0.18092671	      0.00315777	     15.96052176	    -14.80599037	      0.00000000	     38.98396574	      9.58792896	      4.07612222	     14.12687919	      0.24656055	      3.79135461	     -6.77759970	      0.00000000	     -8.39152611	      0.66716309	     -2.92936429	    -15.58390314	      0.88732691	     -3.11244956	    -13.78643825	      1.62214034	     -3.11244956	     -9.59067519	      1.62214034	     -2.56319375	     -7.79237115	      1.36047898	     -2.38010848	     -4.79491802	      1.03343563	     -2.19702322	    -59.93983187	      7.54708234	    -16.29224536	      0.00000000	      0.00000000	     14.65859574	      7.71957049	    -30.01518282	     -6.48730454	    -12.64337615	      7.45021972	     74.83608391	     89.99559364	      0.00000000	      0.00000000	     48.46692999	     -8.65217144	      8.28194706	     27.87557923	     89.99559364	      0.00000000	      0.00000000
      2.10000000	     -6.24914058	     27.54554398	    -50.91293978	     -0.59042117	      0.89619631	     -0.86065765	     25.39040754	    -21.37974975	      2.78892015	      0.15636371	      0.00272906	     16.55750133	    -14.51507560	      0.00000000	     41.36973143	      9.98414147	      3.09129796	     15.16837104	      0.26473802	      4.32543369	     -5.63742094	      0.00000000	     -8.27880616	      0.69886165	     -3.04013141	    -15.37457091	      0.92948600	     -3.23013962	    -13.60125063	      1.69921222	     -3.23013962	     -9.46184756	      1.69921222	     -2.66011498	     -7.68769940	      1.42511868	     -2.47010677	     -4.73050984	      1.08253670	     -2.28009856	    -59.13468449	      7.90566279	    -16.90829887	      0.00000000	      0.00000000	     13.94125635	      6.06123251	    -30.01909827	     -6.38886407	    -12.49162582	      7.45830267	     74.83975014	     89.99559364	      0.00000000	      0.00000000	     48.73680408	     -9.10330181	      8.39452423	     28.29716315	     89.99559364	      0.00000000	      0.00000000
      2.13333333	     -6.83844999	     29.50511191	    -51.13128484	     -0.59405794	      0.89073470	     -0.86331347	     27.86209583	    -22.07269726	      3.92422057	      0.14198007	      0.00247802	     17.09065696	    -13.59645273	      0.00000000	     44.28572935	      9.83185868	     -0.19233545	     16.36748567	      0.28566652	      5.33209360	     -2.53903114	      0.00000000	     -8.08249976	      0.62502288	     -3.06649924	    -15.01001030	      0.83128043	     -3.25815544	    -13.27873885	      1.51968063	     -3.25815544	     -9.23748897	      1.51968063	     -2.68318684	     -7.50540928	      1.27454666	     -2.49153063	     -4.61834036	      0.96816044	     -2.29987443	    -57.73248753	      7.07038383	    -17.05494883	      0.00000000	      0.00000000	     13.24274266	      5.22180809	    -29.69678899	     -6.11599361	    -11.97937594	      7.48753446	     74.85021662	     89.99559364	      0.00000000	      0.00000000	     48.92827417	     -9.87232242	      9.41887809	     28.73135158	     89.99559364	      0.00000000	      0.00000000
      2.16666667	     -7.27771648	     31.22650123	    -50.91546773	     -0.59694800	      0.88557161	     -0.86589888	     29.77420378	    -22.96490723	      4.68023631	      0.12759620	      0.00222697	     17.78400045	    -12.75741088	      0.00000000	     46.79159746	     10.04385301	     -2.19411133	     17.45121122	      0.30458109	      5.92756398	     -0.76478799	      0.00000000	     -7.90635886	      0.57790949	     -3.16295790	    -14.68289905	      0.76861962	     -3.36064277	    -12.98935698	      1.40512913	     -3.36064277	     -9.03617755	      1.40512913	     -2.76758816	     -7.34184484	      1.17847303	     -2.56990329	     -4.51769346	      0.89518180	     -2.37221843	    -56.47433073	      6.53742772	    -17.59142295	      0.00000000	      0.00000000	     12.61589357	      4.64847538	    -29.33189261	     -5.89368150	    -11.52150458	      7.51392029	     74.85843565	     89.99559364	      0.00000000	      0.00000000	     49.17239182	    -10.71049360	     11.29253349	     29.05816398	     89.99559364	      0.00000000	      0.00000000
      2.20000000	     -7.44703005	     32.82178808	    -50.83121902	     -0.59989733	      0.88072069	     -0.86815609	     31.45276291	    -23.95654916	      5.39918293	      0.11594940	      0.00202370	     18.60034574	    -11.68504220	      0.00000000	     48.93109516	     10.31419707	     -4.08405076	     18.35470256	      0.32034999	      6.39219134	      0.74096264	      0.00000000	     -7.74868023	      0.51080100	     -3.26166214	    -14.39007405	      0.67936533	     -3.46551602	    -12.73030675	      1.24196156	     -3.46551602	     -8.85596663	      1.24196156	     -2.85395437	     -7.19542446	      1.04162541	     -2.65010049	     -4.42759588	      0.79123075	     -2.44624660	    -55.34804801	      5.77828311	    -18.14038632	      0.00000000	      0.00000000	     12.01002656	      4.51860278	    -29.04963014	     -5.61903825	    -10.98030677	      7.54363047	     74.86700361	     89.99559364	      0.00000000	      0.00000000	     49.56849310	    -11.60340996	     13.86965895	     29.25000190	     89.99559364	      0.00000000	      0.00000000
      2.23333333	     -7.58114234	     34.27407047	    -50.52760220	     -0.60226765	      0.87616127	     -0.87042064	     32.85827716	    -25.02390516	      5.88829783	      0.10615470	      0.00185275	     19.39275046	    -10.72088470	      0.00000000	     50.83895090	     10.79006464	     -5.24132342	     19.13135320	      0.33390510	      6.60275650	      1.48990427	      0.00000000	     -7.59494281	      0.46074643	     -3.39701746	    -14.10456830	      0.61279276	     -3.60933105	    -12.47773155	      1.12025888	     -3.60933105	     -8.68026014	      1.12025888	     -2.97239028	     -7.05266389	      0.93955413	     -2.76007669	     -4.33975032	      0.71369623	     -2.54776310	    -54.24991701	      5.21205581	    -18.89319202	      0.00000000	      0.00000000	     11.33531363	      4.69728037	    -28.49428437	     -5.45098801	    -10.70279557	      7.55707893	     74.87113518	     89.99559364	      0.00000000	      0.00000000	     49.87931803	    -12.34281049	     15.97421976	     29.44845440	     89.99559364	      0.00000000	      0.00000000
      2.26666667	     -7.39739373	     35.26439536	    -50.22416498	     -0.60387923	      0.87284425	     -0.87194190	     33.53496260	    -26.11201523	      6.27912222	      0.09772683	      0.00170565	     20.05552941	    -10.09893923	      0.00000000	     51.98968083	     11.41919156	     -5.90816565	     19.64426937	      0.34285718	      6.70104458	      1.80150652	      0.00000000	     -7.52582683	      0.41974800	     -3.54116990	    -13.97621300	      0.55826483	     -3.76249302	    -12.36418090	      1.02057528	     -3.76249302	     -8.60126748	      1.02057528	     -3.09852366	     -6.98848279	      0.85595011	     -2.87720055	     -4.30025745	      0.65018965	     -2.65587743	    -53.75622845	      4.74827328	    -19.69492464	      0.00000000	      0.00000000	     10.85851325	      5.39196153	    -28.24276029	     -5.37259436	    -10.60485393	      7.56072979	     74.87263024	     89.99559364	      0.00000000	      0.00000000	     50.38037075	    -12.74354723	     17.16960300	     29.36976884	     89.99559364	      0.00000000	      0.00000000
      2.30000000	     -7.27301432	     35.80940013	    -50.05015210	     -0.60509228	      0.87052157	     -0.87293046	     33.83639587	    -26.81217812	      6.68717863	      0.09197823	      0.00160532	     20.50723106	     -9.66129129	      0.00000000	     52.71690002	     11.77211697	     -6.17818804	     20.09379398	      0.35070286	      6.86762018	      1.84386809	      0.00000000	     -7.51608251	      0.40352781	     -3.62689598	    -13.95811682	      0.53669199	     -3.85357698	    -12.34817195	      0.98113751	     -3.85357698	     -8.59013070	      0.98113751	     -3.17353399	     -6.97943422	      0.82287391	     -2.94685299	     -4.29468954	      0.62506458	     -2.72017199	    -53.68662574	      4.56478728	    -20.17170739	      0.00000000	      0.00000000	     10.65114044	      6.21012023	    -27.93051124	     -5.33896178	    -10.57541632	      7.56128284	     74.87317502	     89.99559364	      0.00000000	      0.00000000	     50.93159064	    -12.88643549	     17.75807931	     29.33973257	     89.99559364	      0.00000000	      0.00000000
      2.33333333	     -7.01449061	     37.57392027	    -50.64838304	     -0.60713857	      0.86653376	     -0.87458600	     35.86107818	    -27.85190766	      7.23462113	      0.09255212	      0.00161534	     21.01462350	     -7.96836201	      0.00000000	     54.32342016	     12.19294392	     -7.50513341	     20.10587369	      0.35091369	      6.75807526	      1.69635033	      0.00000000	     -7.29891338	      0.26055413	     -3.72200876	    -13.55481204	      0.34653699	     -3.95463431	    -11.99138479	      0.63351131	     -3.95463431	     -8.34192810	      0.63351131	     -3.25675767	     -6.77777097	      0.53132198	     -3.02413212	     -4.17059911	      0.40359834	     -2.79150657	    -52.13540839	      2.94744041	    -20.70069613	      0.00000000	      0.00000000	      9.46079424	      7.63150402	    -27.05636558	     -5.04860847	    -10.40724026	      7.55932294	     74.87626440	     89.99559364	      0.00000000	      0.00000000	     51.30196148	    -13.99629270	     21.85626829	     29.51754645	     89.99559364	      0.00000000	      0.00000000
